<svg xmlns="http://www.w3.org/2000/svg" xmlns:xlink="http://www.w3.org/1999/xlink" version="1.1" class="marks" width="674" height="410" viewBox="0 0 674 410"><rect width="674" height="410" fill="white"/><g fill="none" stroke-miterlimit="10" transform="translate(20,5)"><g class="mark-group role-frame root" role="graphics-object" aria-roledescription="group mark container"><g transform="translate(0,0)"><path class="background" aria-hidden="true" d="M0.5,0.5h400v400h-400Z" stroke="#ddd"/><g><g class="mark-group role-axis" role="graphics-symbol" aria-roledescription="axis" aria-label="Y-axis for a discrete scale with 5 values: A, B, C, D, E"><g transform="translate(0.5,0.5)"><path class="background" aria-hidden="true" d="M0,0h0v0h0Z" pointer-events="none"/><g><g class="mark-rule role-axis-tick" pointer-events="none"><line transform="translate(0,40)" x2="-5" y2="0" stroke="#888" stroke-width="1" opacity="1"/><line transform="translate(0,120)" x2="-5" y2="0" stroke="#888" stroke-width="1" opacity="1"/><line transform="translate(0,200)" x2="-5" y2="0" stroke="#888" stroke-width="1" opacity="1"/><line transform="translate(0,280)" x2="-5" y2="0" stroke="#888" stroke-width="1" opacity="1"/><line transform="translate(0,360)" x2="-5" y2="0" stroke="#888" stroke-width="1" opacity="1"/></g><g class="mark-text role-axis-label" pointer-events="none"><text text-anchor="end" transform="translate(-7,43)" font-family="sans-serif" font-size="10px" fill="#000" opacity="1">A</text><text text-anchor="end" transform="translate(-7,123)" font-family="sans-serif" font-size="10px" fill="#000" opacity="1">B</text><text text-anchor="end" transform="translate(-7,203)" font-family="sans-serif" font-size="10px" fill="#000" opacity="1">C</text><text text-anchor="end" transform="translate(-7,283)" font-family="sans-serif" font-size="10px" fill="#000" opacity="1">D</text><text text-anchor="end" transform="translate(-7,363)" font-family="sans-serif" font-size="10px" fill="#000" opacity="1">E</text></g><g class="mark-rule role-axis-domain" pointer-events="none"><line transform="translate(0,0)" x2="0" y2="400" stroke="#888" stroke-width="1" opacity="1"/></g></g><path class="foreground" aria-hidden="true" d="" pointer-events="none" display="none"/></g></g><g class="mark-symbol role-mark marks" role="graphics-object" aria-roledescription="symbol mark container"><path aria-label="cat: A; Mean of var1: 51.3811653054" role="graphics-symbol" aria-roledescription="circle" transform="translate(200,40)" d="M21.311,0A21.311,21.311,0,1,1,-21.311,0A21.311,21.311,0,1,1,21.311,0" fill="gray" stroke-width="2"/><path aria-label="cat: B; Mean of var1: 117.612281603" role="graphics-symbol" aria-roledescription="circle" transform="translate(200,120)" d="M35.355,0A35.355,35.355,0,1,1,-35.355,0A35.355,35.355,0,1,1,35.355,0" fill="gray" stroke-width="2"/><path aria-label="cat: C; Mean of var1: 50.5084042224" role="graphics-symbol" aria-roledescription="circle" transform="translate(200,200)" d="M21.064,0A21.064,21.064,0,1,1,-21.064,0A21.064,21.064,0,1,1,21.064,0" fill="gray" stroke-width="2"/><path aria-label="cat: E; Mean of var1: 23.9880463461" role="graphics-symbol" aria-roledescription="circle" transform="translate(200,360)" d="M11.18,0A11.18,11.18,0,1,1,-11.18,0A11.18,11.18,0,1,1,11.18,0" fill="gray" stroke-width="2"/><path aria-label="cat: D; Mean of var1: 56.1690874666" role="graphics-symbol" aria-roledescription="circle" transform="translate(200,280)" d="M22.621,0A22.621,22.621,0,1,1,-22.621,0A22.621,22.621,0,1,1,22.621,0" fill="gray" stroke-width="2"/></g><g class="mark-group role-legend" role="graphics-symbol" aria-roledescription="legend" aria-label="Symbol legend titled 'Var' for size with values from 24 to 118"><g transform="translate(418,0)"><path class="background" aria-hidden="true" d="M0,0h231v94h-231Z" pointer-events="none"/><g><g class="mark-group role-legend-entry"><g transform="translate(0,16)"><path class="background" aria-hidden="true" d="M0,0h0v0h0Z" pointer-events="none"/><g><g class="mark-group role-scope" role="graphics-object" aria-roledescription="group mark container"><g transform="translate(0,21.805367914595102)"><path class="background" aria-hidden="true" d="M0,0h49.123046875v34.389264170809795h-49.123046875Z" pointer-events="none" opacity="1"/><g><g class="mark-symbol role-legend-symbol" pointer-events="none"><path transform="translate(17,17)" d="M15.889,0A15.889,15.889,0,1,1,-15.889,0A15.889,15.889,0,1,1,15.889,0" fill="gray" stroke-width="1.5" opacity="1"/></g><g class="mark-text role-legend-label" pointer-events="none"><text text-anchor="start" transform="translate(38,20)" font-family="sans-serif" font-size="10px" fill="#000" opacity="1">35</text></g></g><path class="foreground" aria-hidden="true" d="" pointer-events="none" display="none"/></g><g transform="translate(61,16.34449683024331)"><path class="background" aria-hidden="true" d="M0,0h60.123046875v45.31100633951338h-60.123046875Z" pointer-events="none" opacity="1"/><g><g class="mark-symbol role-legend-symbol" pointer-events="none"><path transform="translate(22.5,22.5)" d="M21.311,0A21.311,21.311,0,1,1,-21.311,0A21.311,21.311,0,1,1,21.311,0" fill="gray" stroke-width="1.5" opacity="1"/></g><g class="mark-text role-legend-label" pointer-events="none"><text text-anchor="start" transform="translate(49,25.5)" font-family="sans-serif" font-size="10px" fill="#000" opacity="1">51</text></g></g><path class="foreground" aria-hidden="true" d="" pointer-events="none" display="none"/></g><g transform="translate(133,0.34976995333676797)"><path class="background" aria-hidden="true" d="M0,0h97.6845703125v77.30046009332648h-97.6845703125Z" pointer-events="none" opacity="1"/><g><g class="mark-symbol role-legend-symbol" pointer-events="none"><path transform="translate(38.5,38.5)" d="M37.3,0A37.3,37.3,0,1,1,-37.3,0A37.3,37.3,0,1,1,37.3,0" fill="gray" stroke-width="1.5" opacity="1"/></g><g class="mark-text role-legend-label" pointer-events="none"><text text-anchor="start" transform="translate(81,41.5)" font-family="sans-serif" font-size="10px" fill="#000" opacity="1">129</text></g></g><path class="foreground" aria-hidden="true" d="" pointer-events="none" display="none"/></g></g></g><path class="foreground" aria-hidden="true" d="" pointer-events="none" display="none"/></g></g><g class="mark-text role-legend-title" pointer-events="none"><text text-anchor="start" transform="translate(0,9)" font-family="sans-serif" font-size="11px" font-weight="bold" fill="#000" opacity="1">Var</text></g></g><path class="foreground" aria-hidden="true" d="" pointer-events="none" display="none"/></g></g></g><path class="foreground" aria-hidden="true" d="" display="none"/></g></g></g></svg>