<svg xmlns="http://www.w3.org/2000/svg" xmlns:xlink="http://www.w3.org/1999/xlink" version="1.1" class="marks" width="416" height="416" viewBox="0 0 416 416"><rect width="416" height="416" fill="white"/><g fill="none" stroke-miterlimit="10" transform="translate(11,5)"><g class="mark-group role-frame root" role="graphics-object" aria-roledescription="group mark container"><g transform="translate(0,0)"><path class="background" aria-hidden="true" d="M0.5,0.5h400v400h-400Z" stroke="#ddd"/><g><g class="mark-group role-axis" role="graphics-symbol" aria-roledescription="axis" aria-label="X-axis for a linear scale with values from 22 to 73"><g transform="translate(0.5,400.5)"><path class="background" aria-hidden="true" d="M0,0h0v0h0Z" pointer-events="none"/><g><g class="mark-rule role-axis-tick" pointer-events="none"><line transform="translate(27,0)" x2="0" y2="5" stroke="#888" stroke-width="1" opacity="1"/><line transform="translate(66,0)" x2="0" y2="5" stroke="#888" stroke-width="1" opacity="1"/><line transform="translate(105,0)" x2="0" y2="5" stroke="#888" stroke-width="1" opacity="1"/><line transform="translate(143,0)" x2="0" y2="5" stroke="#888" stroke-width="1" opacity="1"/><line transform="translate(182,0)" x2="0" y2="5" stroke="#888" stroke-width="1" opacity="1"/><line transform="translate(221,0)" x2="0" y2="5" stroke="#888" stroke-width="1" opacity="1"/><line transform="translate(260,0)" x2="0" y2="5" stroke="#888" stroke-width="1" opacity="1"/><line transform="translate(299,0)" x2="0" y2="5" stroke="#888" stroke-width="1" opacity="1"/><line transform="translate(338,0)" x2="0" y2="5" stroke="#888" stroke-width="1" opacity="1"/><line transform="translate(376,0)" x2="0" y2="5" stroke="#888" stroke-width="1" opacity="1"/></g><g class="mark-rule role-axis-domain" pointer-events="none"><line transform="translate(0,0)" x2="400" y2="0" stroke="#888" stroke-width="1" opacity="1"/></g></g><path class="foreground" aria-hidden="true" d="" pointer-events="none" display="none"/></g></g><g class="mark-group role-axis" role="graphics-symbol" aria-roledescription="axis" aria-label="Y-axis for a linear scale with values from 24 to 79"><g transform="translate(0.5,0.5)"><path class="background" aria-hidden="true" d="M0,0h0v0h0Z" pointer-events="none"/><g><g class="mark-rule role-axis-tick" pointer-events="none"><line transform="translate(0,390)" x2="-5" y2="0" stroke="#888" stroke-width="1" opacity="1"/><line transform="translate(0,354)" x2="-5" y2="0" stroke="#888" stroke-width="1" opacity="1"/><line transform="translate(0,318)" x2="-5" y2="0" stroke="#888" stroke-width="1" opacity="1"/><line transform="translate(0,282)" x2="-5" y2="0" stroke="#888" stroke-width="1" opacity="1"/><line transform="translate(0,246)" x2="-5" y2="0" stroke="#888" stroke-width="1" opacity="1"/><line transform="translate(0,210)" x2="-5" y2="0" stroke="#888" stroke-width="1" opacity="1"/><line transform="translate(0,174)" x2="-5" y2="0" stroke="#888" stroke-width="1" opacity="1"/><line transform="translate(0,138)" x2="-5" y2="0" stroke="#888" stroke-width="1" opacity="1"/><line transform="translate(0,103)" x2="-5" y2="0" stroke="#888" stroke-width="1" opacity="1"/><line transform="translate(0,67)" x2="-5" y2="0" stroke="#888" stroke-width="1" opacity="1"/><line transform="translate(0,31)" x2="-5" y2="0" stroke="#888" stroke-width="1" opacity="1"/></g><g class="mark-rule role-axis-domain" pointer-events="none"><line transform="translate(0,400)" x2="0" y2="-400" stroke="#888" stroke-width="1" opacity="1"/></g></g><path class="foreground" aria-hidden="true" d="" pointer-events="none" display="none"/></g></g><g class="mark-symbol role-mark marks" role="graphics-object" aria-roledescription="symbol mark container"><path aria-label="var1: 52.3423449129; var2: 47.4520618456; cat: A" role="graphics-symbol" aria-roledescription="point" transform="translate(239.28265247812016,228.74125935109646)" d="M8.66,0A8.66,8.66,0,1,1,-8.66,0A8.66,8.66,0,1,1,8.66,0" fill="#1f77b4" stroke-width="2" opacity="0.7"/><path aria-label="var1: 40.8969168729; var2: 56.7370864879; cat: A" role="graphics-symbol" aria-roledescription="point" transform="translate(150.40990423632752,161.9587256089059)" d="M8.66,0A8.66,8.66,0,1,1,-8.66,0A8.66,8.66,0,1,1,8.66,0" fill="#1f77b4" stroke-width="2" opacity="0.7"/><path aria-label="var1: 63.0402401869; var2: 49.6283852347; cat: A" role="graphics-symbol" aria-roledescription="point" transform="translate(322.35087413779036,213.0880547806168)" d="M8.66,0A8.66,8.66,0,1,1,-8.66,0A8.66,8.66,0,1,1,8.66,0" fill="#1f77b4" stroke-width="2" opacity="0.7"/><path aria-label="var1: 60.2190619733; var2: 61.560613262; cat: A" role="graphics-symbol" aria-roledescription="point" transform="translate(300.44467191889004,127.2655124018149)" d="M8.66,0A8.66,8.66,0,1,1,-8.66,0A8.66,8.66,0,1,1,8.66,0" fill="#1f77b4" stroke-width="2" opacity="0.7"/><path aria-label="var1: 48.9482587479; var2: 58.1478693979; cat: A" role="graphics-symbol" aria-roledescription="point" transform="translate(212.92787009739214,151.81167043989592)" d="M8.66,0A8.66,8.66,0,1,1,-8.66,0A8.66,8.66,0,1,1,8.66,0" fill="#1f77b4" stroke-width="2" opacity="0.7"/><path aria-label="var1: 40.9599789582; var2: 44.55121091; cat: A" role="graphics-symbol" aria-roledescription="point" transform="translate(150.89957581546216,249.60562783180472)" d="M8.66,0A8.66,8.66,0,1,1,-8.66,0A8.66,8.66,0,1,1,8.66,0" fill="#1f77b4" stroke-width="2" opacity="0.7"/><path aria-label="var1: 45.4142073726; var2: 34.0289637632; cat: A" role="graphics-symbol" aria-roledescription="point" transform="translate(185.48627009272468,325.2868836388891)" d="M8.66,0A8.66,8.66,0,1,1,-8.66,0A8.66,8.66,0,1,1,8.66,0" fill="#1f77b4" stroke-width="2" opacity="0.7"/><path aria-label="var1: 52.3044313397; var2: 39.399207435; cat: A" role="graphics-symbol" aria-roledescription="point" transform="translate(238.9882568964052,286.6614094976681)" d="M8.66,0A8.66,8.66,0,1,1,-8.66,0A8.66,8.66,0,1,1,8.66,0" fill="#1f77b4" stroke-width="2" opacity="0.7"/><path aria-label="var1: 53.4024286801; var2: 69.2548119176; cat: A" role="graphics-symbol" aria-roledescription="point" transform="translate(247.5141102646355,71.92499354090897)" d="M8.66,0A8.66,8.66,0,1,1,-8.66,0A8.66,8.66,0,1,1,8.66,0" fill="#1f77b4" stroke-width="2" opacity="0.7"/><path aria-label="var1: 61.5603051747; var2: 39.5201008704; cat: A" role="graphics-symbol" aria-roledescription="point" transform="translate(310.85930813480303,285.79188354173306)" d="M8.66,0A8.66,8.66,0,1,1,-8.66,0A8.66,8.66,0,1,1,8.66,0" fill="#1f77b4" stroke-width="2" opacity="0.7"/><path aria-label="var1: 42.1088104304; var2: 68.1230926161; cat: A" role="graphics-symbol" aria-roledescription="point" transform="translate(159.82015177390335,80.06488388616404)" d="M8.66,0A8.66,8.66,0,1,1,-8.66,0A8.66,8.66,0,1,1,8.66,0" fill="#1f77b4" stroke-width="2" opacity="0.7"/><path aria-label="var1: 35.457874646; var2: 33.6413206529; cat: B" role="graphics-symbol" aria-roledescription="point" transform="translate(108.17621679151897,328.07500645909096)" d="M8.66,0A8.66,8.66,0,1,1,-8.66,0A8.66,8.66,0,1,1,8.66,0" fill="#ff7f0e" stroke-width="2" opacity="0.7"/><path aria-label="var1: 31.5264600177; var2: 65.1315427355; cat: C" role="graphics-symbol" aria-roledescription="point" transform="translate(77.64912586220962,101.5816044697873)" d="M8.66,0A8.66,8.66,0,1,1,-8.66,0A8.66,8.66,0,1,1,8.66,0" fill="#2ca02c" stroke-width="2" opacity="0.7"/></g></g><path class="foreground" aria-hidden="true" d="" display="none"/></g></g></g></svg>