<svg xmlns="http://www.w3.org/2000/svg" xmlns:xlink="http://www.w3.org/1999/xlink" version="1.1" class="marks" width="478" height="410" viewBox="0 0 478 410"><rect width="478" height="410" fill="white"/><g fill="none" stroke-miterlimit="10" transform="translate(20,5)"><g class="mark-group role-frame root" role="graphics-object" aria-roledescription="group mark container"><g transform="translate(0,0)"><path class="background" aria-hidden="true" d="M0.5,0.5h400v400h-400Z" stroke="#ddd"/><g><g class="mark-group role-axis" role="graphics-symbol" aria-roledescription="axis" aria-label="Y-axis for a discrete scale with 5 values: A, B, C, D, E"><g transform="translate(0.5,0.5)"><path class="background" aria-hidden="true" d="M0,0h0v0h0Z" pointer-events="none"/><g><g class="mark-rule role-axis-tick" pointer-events="none"><line transform="translate(0,40)" x2="-5" y2="0" stroke="#888" stroke-width="1" opacity="1"/><line transform="translate(0,120)" x2="-5" y2="0" stroke="#888" stroke-width="1" opacity="1"/><line transform="translate(0,200)" x2="-5" y2="0" stroke="#888" stroke-width="1" opacity="1"/><line transform="translate(0,280)" x2="-5" y2="0" stroke="#888" stroke-width="1" opacity="1"/><line transform="translate(0,360)" x2="-5" y2="0" stroke="#888" stroke-width="1" opacity="1"/></g><g class="mark-text role-axis-label" pointer-events="none"><text text-anchor="end" transform="translate(-7,43)" font-family="sans-serif" font-size="10px" fill="#000" opacity="1">A</text><text text-anchor="end" transform="translate(-7,123)" font-family="sans-serif" font-size="10px" fill="#000" opacity="1">B</text><text text-anchor="end" transform="translate(-7,203)" font-family="sans-serif" font-size="10px" fill="#000" opacity="1">C</text><text text-anchor="end" transform="translate(-7,283)" font-family="sans-serif" font-size="10px" fill="#000" opacity="1">D</text><text text-anchor="end" transform="translate(-7,363)" font-family="sans-serif" font-size="10px" fill="#000" opacity="1">E</text></g><g class="mark-rule role-axis-domain" pointer-events="none"><line transform="translate(0,0)" x2="0" y2="400" stroke="#888" stroke-width="1" opacity="1"/></g></g><path class="foreground" aria-hidden="true" d="" pointer-events="none" display="none"/></g></g><g class="mark-symbol role-mark marks" role="graphics-object" aria-roledescription="symbol mark container"><path aria-label="cat: C; Mean of var1: 51.7682999043" role="graphics-symbol" aria-roledescription="point" transform="translate(200,200)" d="M8.66,0A8.66,8.66,0,1,1,-8.66,0A8.66,8.66,0,1,1,8.66,0" fill="rgb(184, 226, 178)" stroke-width="2"/><path aria-label="cat: B; Mean of var1: 44.0778025006" role="graphics-symbol" aria-roledescription="point" transform="translate(200,120)" d="M8.66,0A8.66,8.66,0,1,1,-8.66,0A8.66,8.66,0,1,1,8.66,0" fill="rgb(202, 234, 196)" stroke-width="2"/><path aria-label="cat: A; Mean of var1: 111.749859997" role="graphics-symbol" aria-roledescription="point" transform="translate(200,40)" d="M8.66,0A8.66,8.66,0,1,1,-8.66,0A8.66,8.66,0,1,1,8.66,0" fill="rgb(21, 126, 59)" stroke-width="2"/><path aria-label="cat: E; Mean of var1: 50.7661780501" role="graphics-symbol" aria-roledescription="point" transform="translate(200,360)" d="M8.66,0A8.66,8.66,0,1,1,-8.66,0A8.66,8.66,0,1,1,8.66,0" fill="rgb(186, 228, 180)" stroke-width="2"/><path aria-label="cat: D; Mean of var1: 54.8278742544" role="graphics-symbol" aria-roledescription="point" transform="translate(200,280)" d="M8.66,0A8.66,8.66,0,1,1,-8.66,0A8.66,8.66,0,1,1,8.66,0" fill="rgb(176, 223, 170)" stroke-width="2"/></g><g class="mark-group role-legend" role="graphics-symbol" aria-roledescription="legend" aria-label="Gradient legend titled 'Var' for fill color with values from 40 to 123"><g transform="translate(418,0)"><path class="background" aria-hidden="true" d="M0,0h35v216h-35Z" pointer-events="none"/><g><g class="mark-group role-legend-entry"><g transform="translate(0,16)"><path class="background" aria-hidden="true" d="M0,0h0v0h0Z" pointer-events="none"/><g><g class="mark-rect role-legend-gradient" pointer-events="none"><path d="M0,0h16v200h-16Z" fill="url(#gradient_2)" stroke="#ddd" stroke-width="0" opacity="1"/></g><g class="mark-text role-legend-label" pointer-events="none"><text text-anchor="start" transform="translate(18,155.29522783143898)" font-family="sans-serif" font-size="10px" fill="#000" opacity="1">60</text><text text-anchor="start" transform="translate(18,107.23266340691804)" font-family="sans-serif" font-size="10px" fill="#000" opacity="1">80</text><text text-anchor="start" transform="translate(18,59.17009898239711)" font-family="sans-serif" font-size="10px" fill="#000" opacity="1">100</text><text text-anchor="start" transform="translate(18,11.107534557876184)" font-family="sans-serif" font-size="10px" fill="#000" opacity="1">120</text></g></g><path class="foreground" aria-hidden="true" d="" pointer-events="none" display="none"/></g></g><g class="mark-text role-legend-title" pointer-events="none"><text text-anchor="start" transform="translate(0,9)" font-family="sans-serif" font-size="11px" font-weight="bold" fill="#000" opacity="1">Var</text></g></g><path class="foreground" aria-hidden="true" d="" pointer-events="none" display="none"/></g></g></g><path class="foreground" aria-hidden="true" d="" display="none"/></g></g></g><defs><linearGradient id="gradient_2" x1="0" x2="0" y1="1" y2="0"><stop offset="0" stop-color="rgb(211, 238, 205)"/><stop offset="0.0582892442508516" stop-color="rgb(200, 233, 194)"/><stop offset="0.11836744978150276" stop-color="rgb(188, 228, 182)"/><stop offset="0.17844565531215395" stop-color="rgb(176, 223, 170)"/><stop offset="0.2385238608428051" stop-color="rgb(162, 217, 157)"/><stop offset="0.29860206637345627" stop-color="rgb(148, 211, 145)"/><stop offset="0.35868027190410745" stop-color="rgb(133, 204, 133)"/><stop offset="0.41875847743475864" stop-color="rgb(118, 197, 122)"/><stop offset="0.4788366829654098" stop-color="rgb(102, 189, 112)"/><stop offset="0.538914888496061" stop-color="rgb(86, 180, 103)"/><stop offset="0.5989930940267122" stop-color="rgb(70, 171, 94)"/><stop offset="0.6590712995573633" stop-color="rgb(58, 161, 86)"/><stop offset="0.7191495050880145" stop-color="rgb(47, 151, 78)"/><stop offset="0.7792277106186656" stop-color="rgb(36, 141, 70)"/><stop offset="0.8393059161493167" stop-color="rgb(25, 130, 61)"/><stop offset="0.899384121679968" stop-color="rgb(14, 119, 53)"/><stop offset="0.9594623272106191" stop-color="rgb(7, 108, 46)"/><stop offset="1" stop-color="rgb(3, 100, 41)"/></linearGradient></defs></svg>